<svg xmlns="http://www.w3.org/2000/svg" viewBox="0 0 100 100">
  <defs>
    <radialGradient id="bg" cx="50%" cy="50%" r="50%">
      <stop offset="0%" style="stop-color:#1e293b;stop-opacity:1" />
      <stop offset="100%" style="stop-color:#0f172a;stop-opacity:1" />
    </radialGradient>
  </defs>
  
  <!-- Background circle -->
  <circle cx="50" cy="50" r="50" fill="url(#bg)"/>
  
  <!-- Compass rose -->
  <g transform="translate(50,50)">
    <!-- Main compass directions -->
    <path d="M0,-20 L4,-8 L0,-12 L-4,-8 Z" fill="#fbbf24" stroke="#f59e0b" stroke-width="0.5"/>
    <path d="M20,0 L8,4 L12,0 L8,-4 Z" fill="#fbbf24" stroke="#f59e0b" stroke-width="0.5"/>
    <path d="M0,20 L-4,8 L0,12 L4,8 Z" fill="#fbbf24" stroke="#f59e0b" stroke-width="0.5"/>
    <path d="M-20,0 L-8,-4 L-12,0 L-8,4 Z" fill="#fbbf24" stroke="#f59e0b" stroke-width="0.5"/>
    
    <!-- Center circle -->
    <circle cx="0" cy="0" r="3" fill="#fbbf24" stroke="#f59e0b" stroke-width="1"/>
    
    <!-- Stars -->
    <g fill="#ffffff" opacity="0.8">
      <circle cx="-15" cy="-15" r="1"/>
      <circle cx="15" cy="-15" r="1"/>
      <circle cx="-15" cy="15" r="1"/>
      <circle cx="15" cy="15" r="1"/>
      <circle cx="-25" cy="5" r="0.5"/>
      <circle cx="25" cy="-5" r="0.5"/>
    </g>
  </g>
</svg> 